<svg xmlns="http://www.w3.org/2000/svg" viewBox="0 0 370 152" width="740" height="304" role="img" aria-label="Plataforma Mendonça" xmlns:c2pa="http://c2pa.org/manifest"><metadata><c2pa:manifest>AAAWgmp1bWIAAAAeanVtZGMycGEAEQAQgAAAqgA4m3EDYzJwYQAAABZcanVtYgAAAEdqdW1kYzJtYQARABCAAACqADibcQN1cm46YzJwYTpjODczYWU0NC1lOGUxLTQ4NDktOGRlMS01M2U5NTU3ZmU1YWMAAAADl2p1bWIAAAApanVtZGMyYXMAEQAQgAAAqgA4m3EDYzJwYS5hc3NlcnRpb25zAAAAALxqdW1iAAAARGp1bWRjYm9yABEAEIAAAKoAOJtxE2MycGEuaW5ncmVkaWVudC52MwAAAAAYYzJzaJF+aQcjRKPvx/6wDZwVWEAAAABwY2JvcqNpZGM6Zm9ybWF0bWltYWdlL3N2Zyt4bWxqaW5zdGFuY2VJRHgseG1wOmlpZDowNjU1ZTJlOC1lNGMwLTQyMjMtYjQwZC0xNjE0MGI0NDhmMjBscmVsYXRpb25zaGlwaHBhcmVudE9mAAAB4mp1bWIAAABBanVtZGNib3IAEQAQgAAAqgA4m3ETYzJwYS5hY3Rpb25zLnYyAAAAABhjMnNo+y1SIof4M0dQx3b/iIL+vgAAAZljYm9yomdhY3Rpb25zgqJmYWN0aW9ua2MycGEub3BlbmVkanBhcmFtZXRlcnOha2luZ3JlZGllbnRzgaJjdXJseC1zZWxmI2p1bWJmPWMycGEuYXNzZXJ0aW9ucy9jMnBhLmluZ3JlZGllbnQudjNkaGFzaFggHmhP52W1gyjUN/WsR5hFsTG12FtLBVHEnZ05cXOQhASkZmFjdGlvbngdY29tLmFudGhyb3BpYy5jbGF1ZGUucHJvdmlkZWRqcGFyYW1ldGVyc6F4H2NvbS5hbnRocm9waWMub3JpZ2luLWNvbmZpZGVuY2VndW5rbm93bmtkZXNjcmlwdGlvbnhmQ2xhdWRlIHByb3ZpZGVkIHRoaXMgZmlsZSBhdCB0aGUgcmVxdWVzdCBvZiBhIHVzZXIgYW5kIG1heSBoYXZlIGNyZWF0ZWQgb3IgbW9kaWZpZWQgdGhlIGZpbGUgY29udGVudHMubXNvZnR3YXJlQWdlbnShZG5hbWVmQ2xhdWRlcmFsbEFjdGlvbnNJbmNsdWRlZPUAAADIanVtYgAAAEBqdW1kY2JvcgARABCAAACqADibcRNjMnBhLmhhc2guZGF0YQAAAAAYYzJzaEzfyNJJ0Na3zu0VQ6XKbrkAAACAY2JvcqVjYWxnZnNoYTI1NmNwYWRNAAAAAAAAAAAAAAAAAGRoYXNoWCAkcf3LTfhCC5rSkBgZDWLoIoDdbCmm8o5R3nDqT+KLy2RuYW1lbmp1bWJmIG1hbmlmZXN0amV4Y2x1c2lvbnOBomVzdGFydBjDZmxlbmd0aBkeBAAAAj5qdW1iAAAAJ2p1bWRjMmNsABEAEIAAAKoAOJtxA2MycGEuY2xhaW0udjIAAAACD2Nib3KlY2FsZ2ZzaGEyNTZpc2lnbmF0dXJleE1zZWxmI2p1bWJmPS9jMnBhL3VybjpjMnBhOmM4NzNhZTQ0LWU4ZTEtNDg0OS04ZGUxLTUzZTk1NTdmZTVhYy9jMnBhLnNpZ25hdHVyZWppbnN0YW5jZUlEeCx4bXA6aWlkOmU4Mzg4YzJkLTBjNmQtNDA3Ny1iYWFlLWQxN2RmMzcwMmM3MnJjcmVhdGVkX2Fzc2VydGlvbnODomN1cmx4LXNlbGYjanVtYmY9YzJwYS5hc3NlcnRpb25zL2MycGEuaW5ncmVkaWVudC52M2RoYXNoWCAeaE/nZbWDKNQ39axHmEWxMbXYW0sFUcSdnTlxc5CEBKJjdXJseCpzZWxmI2p1bWJmPWMycGEuYXNzZXJ0aW9ucy9jMnBhLmFjdGlvbnMudjJkaGFzaFggIyGF7nbgmwRxh6tabX8acUkWH2RLsFzfwnAqe95q4ByiY3VybHgpc2VsZiNqdW1iZj1jMnBhLmFzc2VydGlvbnMvYzJwYS5oYXNoLmRhdGFkaGFzaFggt7zBRUDeXIi4noXOrIHunBnWS0CoT/aRsZ6h5g0ayiF0Y2xhaW1fZ2VuZXJhdG9yX2luZm+jZG5hbWVvQW50aHJvcGljIEZpbGVzZ3ZlcnNpb25lMS4wLjBrc3BlY1ZlcnNpb25lMi40LjAAABA4anVtYgAAAChqdW1kYzJjcwARABCAAACqADibcQNjMnBhLnNpZ25hdHVyZQAAABAIY2JvctKEWQISogEmGCFZAgowggIGMIIBjaADAgECAhRA5aAK7sI50L64g/oGQgU9Z1UTADAKBggqhkjOPQQDAzBJMRcwFQYDVQQKEw5BbnRocm9waWMsIFBCQzEuMCwGA1UEAxMlQW50aHJvcGljIENvbnRlbnQgQ3JlZGVudGlhbHMgUm9vdCBDQTAeFw0yNjA4MDcxODQzNTZaFw0yODA4MDYxOTQzNTZaMEQxFzAVBgNVBAoTDkFudGhyb3BpYywgUEJDMSkwJwYDVQQDEyBBbnRocm9waWMgQ2xhdWRlIENvbnRlbnQgU2lnbmluZzBZMBMGByqGSM49AgEGCCqGSM49AwEHA0IABJh6CmvLUBgFFNU0vUKlOVtE6djd17L5SuwX0LemFisBM3dkd/3cyjxFA3Qo5S46fX0/ihY0VZ7mfb9KF703t5OjWDBWMA4GA1UdDwEB/wQEAwIHgDAVBgNVHSUEDjAMBgorBgEEAYPoXgIBMAwGA1UdEwEB/wQCMAAwHwYDVR0jBBgwFoAUzlHiBIFOZFsj+OPEz5o+nMHXXMIwCgYIKoZIzj0EAwMDZwAwZAIwMXMdFJ4BetLLVY7ORuE9noqbbAZOZn/aArXyTwFAZfKrPzxF2vPoJNf1+UCdg1XGAjBwX1zd9WGqYkqmL5SFqw1QySjr1zJfpJM9+1rdDwSPLMOPOjKuiXjoU/pUUeG9RwmhY3BhZFkNngAAAAAAAAAAAAAAAAAAAAAAAAAAAAAAAAAAAAAAAAAAAAAAAAAAAAAAAAAAAAAAAAAAAAAAAAAAAAAAAAAAAAAAAAAAAAAAAAAAAAAAAAAAAAAAAAAAAAAAAAAAAAAAAAAAAAAAAAAAAAAAAAAAAAAAAAAAAAAAAAAAAAAAAAAAAAAAAAAAAAAAAAAAAAAAAAAAAAAAAAAAAAAAAAAAAAAAAAAAAAAAAAAAAAAAAAAAAAAAAAAAAAAAAAAAAAAAAAAAAAAAAAAAAAAAAAAAAAAAAAAAAAAAAAAAAAAAAAAAAAAAAAAAAAAAAAAAAAAAAAAAAAAAAAAAAAAAAAAAAAAAAAAAAAAAAAAAAAAAAAAAAAAAAAAAAAAAAAAAAAAAAAAAAAAAAAAAAAAAAAAAAAAAAAAAAAAAAAAAAAAAAAAAAAAAAAAAAAAAAAAAAAAAAAAAAAAAAAAAAAAAAAAAAAAAAAAAAAAAAAAAAAAAAAAAAAAAAAAAAAAAAAAAAAAAAAAAAAAAAAAAAAAAAAAAAAAAAAAAAAAAAAAAAAAAAAAAAAAAAAAAAAAAAAAAAAAAAAAAAAAAAAAAAAAAAAAAAAAAAAAAAAAAAAAAAAAAAAAAAAAAAAAAAAAAAAAAAAAAAAAAAAAAAAAAAAAAAAAAAAAAAAAAAAAAAAAAAAAAAAAAAAAAAAAAAAAAAAAAAAAAAAAAAAAAAAAAAAAAAAAAAAAAAAAAAAAAAAAAAAAAAAAAAAAAAAAAAAAAAAAAAAAAAAAAAAAAAAAAAAAAAAAAAAAAAAAAAAAAAAAAAAAAAAAAAAAAAAAAAAAAAAAAAAAAAAAAAAAAAAAAAAAAAAAAAAAAAAAAAAAAAAAAAAAAAAAAAAAAAAAAAAAAAAAAAAAAAAAAAAAAAAAAAAAAAAAAAAAAAAAAAAAAAAAAAAAAAAAAAAAAAAAAAAAAAAAAAAAAAAAAAAAAAAAAAAAAAAAAAAAAAAAAAAAAAAAAAAAAAAAAAAAAAAAAAAAAAAAAAAAAAAAAAAAAAAAAAAAAAAAAAAAAAAAAAAAAAAAAAAAAAAAAAAAAAAAAAAAAAAAAAAAAAAAAAAAAAAAAAAAAAAAAAAAAAAAAAAAAAAAAAAAAAAAAAAAAAAAAAAAAAAAAAAAAAAAAAAAAAAAAAAAAAAAAAAAAAAAAAAAAAAAAAAAAAAAAAAAAAAAAAAAAAAAAAAAAAAAAAAAAAAAAAAAAAAAAAAAAAAAAAAAAAAAAAAAAAAAAAAAAAAAAAAAAAAAAAAAAAAAAAAAAAAAAAAAAAAAAAAAAAAAAAAAAAAAAAAAAAAAAAAAAAAAAAAAAAAAAAAAAAAAAAAAAAAAAAAAAAAAAAAAAAAAAAAAAAAAAAAAAAAAAAAAAAAAAAAAAAAAAAAAAAAAAAAAAAAAAAAAAAAAAAAAAAAAAAAAAAAAAAAAAAAAAAAAAAAAAAAAAAAAAAAAAAAAAAAAAAAAAAAAAAAAAAAAAAAAAAAAAAAAAAAAAAAAAAAAAAAAAAAAAAAAAAAAAAAAAAAAAAAAAAAAAAAAAAAAAAAAAAAAAAAAAAAAAAAAAAAAAAAAAAAAAAAAAAAAAAAAAAAAAAAAAAAAAAAAAAAAAAAAAAAAAAAAAAAAAAAAAAAAAAAAAAAAAAAAAAAAAAAAAAAAAAAAAAAAAAAAAAAAAAAAAAAAAAAAAAAAAAAAAAAAAAAAAAAAAAAAAAAAAAAAAAAAAAAAAAAAAAAAAAAAAAAAAAAAAAAAAAAAAAAAAAAAAAAAAAAAAAAAAAAAAAAAAAAAAAAAAAAAAAAAAAAAAAAAAAAAAAAAAAAAAAAAAAAAAAAAAAAAAAAAAAAAAAAAAAAAAAAAAAAAAAAAAAAAAAAAAAAAAAAAAAAAAAAAAAAAAAAAAAAAAAAAAAAAAAAAAAAAAAAAAAAAAAAAAAAAAAAAAAAAAAAAAAAAAAAAAAAAAAAAAAAAAAAAAAAAAAAAAAAAAAAAAAAAAAAAAAAAAAAAAAAAAAAAAAAAAAAAAAAAAAAAAAAAAAAAAAAAAAAAAAAAAAAAAAAAAAAAAAAAAAAAAAAAAAAAAAAAAAAAAAAAAAAAAAAAAAAAAAAAAAAAAAAAAAAAAAAAAAAAAAAAAAAAAAAAAAAAAAAAAAAAAAAAAAAAAAAAAAAAAAAAAAAAAAAAAAAAAAAAAAAAAAAAAAAAAAAAAAAAAAAAAAAAAAAAAAAAAAAAAAAAAAAAAAAAAAAAAAAAAAAAAAAAAAAAAAAAAAAAAAAAAAAAAAAAAAAAAAAAAAAAAAAAAAAAAAAAAAAAAAAAAAAAAAAAAAAAAAAAAAAAAAAAAAAAAAAAAAAAAAAAAAAAAAAAAAAAAAAAAAAAAAAAAAAAAAAAAAAAAAAAAAAAAAAAAAAAAAAAAAAAAAAAAAAAAAAAAAAAAAAAAAAAAAAAAAAAAAAAAAAAAAAAAAAAAAAAAAAAAAAAAAAAAAAAAAAAAAAAAAAAAAAAAAAAAAAAAAAAAAAAAAAAAAAAAAAAAAAAAAAAAAAAAAAAAAAAAAAAAAAAAAAAAAAAAAAAAAAAAAAAAAAAAAAAAAAAAAAAAAAAAAAAAAAAAAAAAAAAAAAAAAAAAAAAAAAAAAAAAAAAAAAAAAAAAAAAAAAAAAAAAAAAAAAAAAAAAAAAAAAAAAAAAAAAAAAAAAAAAAAAAAAAAAAAAAAAAAAAAAAAAAAAAAAAAAAAAAAAAAAAAAAAAAAAAAAAAAAAAAAAAAAAAAAAAAAAAAAAAAAAAAAAAAAAAAAAAAAAAAAAAAAAAAAAAAAAAAAAAAAAAAAAAAAAAAAAAAAAAAAAAAAAAAAAAAAAAAAAAAAAAAAAAAAAAAAAAAAAAAAAAAAAAAAAAAAAAAAAAAAAAAAAAAAAAAAAAAAAAAAAAAAAAAAAAAAAAAAAAAAAAAAAAAAAAAAAAAAAAAAAAAAAAAAAAAAAAAAAAAAAAAAAAAAAAAAAAAAAAAAAAAAAAAAAAAAAAAAAAAAAAAAAAAAAAAAAAAAAAAAAAAAAAAAAAAAAAAAAAAAAAAAAAAAAAAAAAAAAAAAAAAAAAAAAAAAAAAAAAAAAAAAAAAAAAAAAAAAAAAAAAAAAAAAAAAAAAAAAAAAAAAAAAAAAAAAAAAAAAAAAAAAAAAAAAAAAAAAAAAAAAAAAAAAAAAAAAAAAAAAAAAAAAAAAAAAAAAAAAAAAAAAAAAAAAAAAAAAAAAAAAAAAAAAAAAAAAAAAAAAAAAAAAAAAAAAAAAAAAAAAAAAAAAAAAAAAAAAAAAAAAAAAAAAAAAAAAAAAAAAAAAAAAAAAAAAAAAAAAAAAAAAAAAAAAAAAAAAAAAAAAAAAAAAAAAAAAAAAAAAAAAAAAAAAAAAAAAAAAAAAAAAAAAAAAAAAAAAAAAAAAAAAAAAAAAAAAAAAAAAAAAAAAAAAAAAAAAAAAAAAAAAAAAAAAAAAAAAAAAAAAAAAAAAAAAAAAAAAAAAAAAAAAAAAAAAAAAAAAAAAAAAAAAAAAAAAAAAAAAAAAAAAAAAAAAAAAAAAAAAAAAAAAAAAAAAAAAAAAAAAAAAAAAAAAAAAAAAAAAAAAAAAAAAAAAAAAAAAAAAAAAAAAAAAAAAAAAAAAAAAAAAAAAAAAAAAAAAAAAAAAAAAAAAAAAAAAAAAAAAAAAAAAAAAAAAAAAAAAAAAAAAAAAAAAAAAAAAAAAAAAAAAAAAAAAAAAAAAAAAAAAAAAAAAAAAAAAAAAAAAAAAAAAAAAAAAAAAAAAAAAAAAAAAAAAAAAAAAAAAAAAAAAAAAAAAAAAAAAAAAAAAAAAAAAAAAAAAAAAAAAAAAAAAAAAAAAAAAAAAAAAAAAAAAAAAAAAAAAAAAAAAAAAAAAAAAAAAAAAAAAAAAAAAAAAAAAAAAAAAAAAAAAAAAAAAAAAAAAAAAAAAAAAAAAAAAAAAAAAAAAAAAAAAAAAAAAAAAAAAAAAAAAAAAAAAAAAAAAAAAAAAAAAAAAAAAAAAAAAAAAAAAAAAAAAAAAAAAAAAAAAAAAAAAAAAAAAAAAAAAAAAAAAAAAAAAAAAAAAAAAAAAAAAAAAAAAAAAAAAAAAAAAAAAAAAAAAAAAAAAAAAAAAAAAAAAAAAAAAAAAAAAAAAAAAAAAAAAAAAAAAAAAAAAAAAAAAAAAAAAAAAAAAAAAAAAAAAAAAAAAAAAAAAAAAAAAAAAAAAAAAAAAAAAAAAAAAAAAAAAAAAAAAAAAAAAAAAAAAAAAAAAAAAAAAAAAAAAAAAAAAAAAAAAAAAAAAAAAAAAAAAAAAAAAAAAAAAAAAAAAAAAAAAAAAAAAAAAAAAAAAAAAAAAAAAAAAAAAAAAAAAAAAAAAAAAAAAAAAAAAAAAAAAAAAAAAAAAAAAAAAAAAAAAAAAAAAAAAAAAAAAAAAAAAAAAAAAAAAAAAAAAAAAAAAAAAAAAAAAAAAAAAAAAAAAAAAAAAAAAAAAAAAAAAAAAAAAAAAAAAAAAAAAAAAAAAAAAAAAAAAAAAAAAAAAAAAAAAAAAAAAAAAAAAAAAAAAAAAAAAAAAAAAAAAAAAAAAAAAAAAAAAAAAAAAAAAAAAAAAAAAAAAAAAAAAAAAAAAAAAAAAAAAAAAAAAAAAAAAAAAAAAAAAAAAAAAPZYQOnSDkODoQZHRdpxvEw/nW7N847la2yFpHsGRnzEAhH5S7Ne8hfVtG33HLMKB/aYP8EgyEsETo9BBoKYkxPXkwI=</c2pa:manifest></metadata>
<style>
/* ---------- Linha do tempo ----------
 0.00s  logo surge no centro e desenha o M
 1.75s  brilho cruza o ícone
 2.50s  logo desliza para a esquerda; o texto sai de dentro dela
 3.85s  chapéu de formando cai sobre a logo
 4.37s  impacto: ícone "afunda", borla balança, brilhos
------------------------------------------ */
.tile{transform-box:fill-box;transform-origin:center;animation:tile .45s cubic-bezier(.2,.8,.2,1) both}
.base,.m{fill:none;stroke:#fff;stroke-linecap:round;stroke-linejoin:round}
.base{stroke-opacity:.55;stroke-width:22;animation:draw .75s cubic-bezier(.4,0,.2,1) .3s both}
.m{stroke-width:44;animation:draw 1.1s cubic-bezier(.65,0,.35,1) .6s both}

.shine{animation:shine .8s cubic-bezier(.45,0,.25,1) 1.75s both}

.slide{animation:slide 1.1s cubic-bezier(.65,0,.25,1) 2.5s both}
.t1{animation:out1 1.05s cubic-bezier(.22,.9,.3,1) 2.55s both}
.t2{animation:out2 1.05s cubic-bezier(.22,.9,.3,1) 2.68s both}

.hit{animation:hit .6s cubic-bezier(.2,.7,.3,1) 4.37s both}
.cap{animation:cap 1s linear 3.85s both,show .05s linear 3.85s both}
.tassel{animation:swing 1.7s ease-in-out 4.3s both}
.spark{transform-box:fill-box;transform-origin:center;transform:scale(0);animation:spark .75s cubic-bezier(.3,.7,.3,1) both}
.s1{animation-delay:4.45s}.s2{animation-delay:4.62s}

@keyframes tile{from{opacity:0;transform:scale(.9)}to{opacity:1;transform:scale(1)}}
@keyframes draw{from{stroke-dasharray:1 1;stroke-dashoffset:1;opacity:0}1%{opacity:1}to{stroke-dasharray:1 1;stroke-dashoffset:0;opacity:1}}
@keyframes shine{to{transform:translateX(900px)}}
@keyframes slide{from{transform:translateX(137px)}to{transform:translateX(0)}}
@keyframes out1{from{transform:translateX(-185px)}to{transform:translateX(0)}}
@keyframes out2{from{transform:translateX(-280px)}to{transform:translateX(0)}}
@keyframes show{from{opacity:0}to{opacity:1}}
@keyframes cap{
  0%{transform:translateY(-190px) rotate(24deg);animation-timing-function:cubic-bezier(.5,0,.9,.6)}
  52%{transform:translateY(3px) rotate(-3deg);animation-timing-function:cubic-bezier(.2,.7,.3,1)}
  68%{transform:translateY(-9px) rotate(2deg);animation-timing-function:ease-in}
  80%{transform:translateY(1px) rotate(-.8deg);animation-timing-function:ease-out}
  90%{transform:translateY(-2.5px) rotate(.3deg);animation-timing-function:ease-in-out}
  100%{transform:translateY(0) rotate(0)}
}
@keyframes hit{
  0%{transform:scale(1,1)}
  25%{transform:scale(1.03,.955)}
  55%{transform:scale(.995,1.015)}
  100%{transform:scale(1,1)}
}
@keyframes swing{
  0%{transform:rotate(0)}
  20%{transform:rotate(16deg)}
  45%{transform:rotate(-11deg)}
  68%{transform:rotate(6deg)}
  85%{transform:rotate(-2.5deg)}
  100%{transform:rotate(0)}
}
@keyframes spark{
  0%{transform:scale(0) rotate(-45deg);opacity:1}
  45%{transform:scale(1) rotate(0);opacity:1}
  100%{transform:scale(0) rotate(45deg);opacity:1}
}
@media (prefers-reduced-motion:reduce){
  .tile,.base,.m,.shine,.slide,.t1,.t2,.hit,.cap,.tassel,.spark{animation:none}
  .spark{opacity:0}
}
</style>
<defs>
  <linearGradient id="g" x1="0" y1="512" x2="512" y2="0" gradientUnits="userSpaceOnUse"><stop offset="0" stop-color="#4338ca"/><stop offset="1" stop-color="#7c3aed"/></linearGradient>
  <linearGradient id="sh" x1="0" y1="0" x2="1" y2="0"><stop offset="0" stop-color="#fff" stop-opacity="0"/><stop offset=".5" stop-color="#fff" stop-opacity=".38"/><stop offset="1" stop-color="#fff" stop-opacity="0"/></linearGradient>
  <clipPath id="tileclip"><rect width="512" height="512" rx="116"/></clipPath>
  <!-- só mostra o que está à direita da borda da logo (acompanha o deslize) -->
  <clipPath id="fromTile"><rect x="90" y="-100" width="600" height="320"/></clipPath>
</defs>

<g transform="translate(0 56)">

  <!-- Texto (fica ATRÁS da logo e sai de dentro dela) -->
  <g class="slide"><g clip-path="url(#fromTile)">
    <g class="t1"><path d="M124.05 37H126.05V28.93H129.88C135.31 28.93 137.25 26.88 137.25 23.09C137.25 18.91 135.04 17.05 129.56 17.05H124.05ZM126.05 27.12V18.86H128.88C132.69 18.86 135.23 19.05 135.23 23.09C135.23 25.98 133.72 27.12 129.75 27.12ZM140.28 37H142.28V17.05H140.28ZM145.72 29.66C145.72 34.06 149.09 37.35 153.63 37.35C156.14 37.35 157.76 36.51 159.33 34.41V37H161.32V22.23H159.33V24.85C157.87 22.8 156.06 21.88 153.49 21.88C149.07 21.88 145.72 25.23 145.72 29.66ZM147.74 29.52C147.74 26.31 150.34 23.72 153.55 23.72C156.79 23.72 159.33 26.25 159.33 29.55C159.33 32.9 156.84 35.52 153.66 35.52C150.31 35.52 147.74 32.9 147.74 29.52ZM163.95 24.04H167.13V37H169.13V24.04H172.45V22.23H169.13V17.05H167.13V22.23H163.95ZM174.51 29.66C174.51 34.06 177.89 37.35 182.42 37.35C184.93 37.35 186.55 36.51 188.12 34.41V37H190.12V22.23H188.12V24.85C186.66 22.8 184.85 21.88 182.29 21.88C177.86 21.88 174.51 25.23 174.51 29.66ZM176.54 29.52C176.54 26.31 179.13 23.72 182.34 23.72C185.58 23.72 188.12 26.25 188.12 29.55C188.12 32.9 185.64 35.52 182.45 35.52C179.1 35.52 176.54 32.9 176.54 29.52ZM192.85 24.04H195.15V37H197.14V24.04H200.82V22.23H197.14C197.12 19.77 198.09 18.86 200.82 18.86V17.05C197.01 17.05 195.09 18.8 195.15 22.23H192.85ZM202.63 29.52C202.63 34.06 205.95 37.35 210.54 37.35C214.86 37.35 218.05 34.08 218.05 29.66C218.05 25.15 214.81 21.88 210.38 21.88C206.01 21.88 202.63 25.2 202.63 29.52ZM204.66 29.57C204.66 26.23 207.11 23.72 210.38 23.72C213.62 23.72 216.02 26.25 216.02 29.68C216.02 33.06 213.7 35.52 210.49 35.52C207.09 35.52 204.66 33.03 204.66 29.57ZM221.48 37H223.48V28.39C223.48 25.63 224.88 24.12 227.67 23.85V21.88C225.53 21.99 224.26 22.72 223.48 24.34V22.23H221.48ZM230.21 37H232.21V28.39C232.21 25.44 233.69 23.72 236.18 23.72C238.44 23.72 240.17 25.09 240.17 28.39V37H242.17V28.44C242.17 25.09 243.87 23.69 246.22 23.69C248.65 23.69 250.14 25.12 250.14 28.44V37H252.13V28.23C252.13 23.93 249.7 21.85 246.33 21.85C244.03 21.85 242.44 22.74 241.2 24.71C240.04 22.74 238.58 21.88 236.37 21.88C234.5 21.88 233.34 22.45 232.21 23.93V22.23H230.21ZM255.57 29.66C255.57 34.06 258.94 37.35 263.48 37.35C265.99 37.35 267.61 36.51 269.18 34.41V37H271.18V22.23H269.18V24.85C267.72 22.8 265.91 21.88 263.35 21.88C258.92 21.88 255.57 25.23 255.57 29.66ZM257.59 29.52C257.59 26.31 260.19 23.72 263.4 23.72C266.64 23.72 269.18 26.25 269.18 29.55C269.18 32.9 266.69 35.52 263.51 35.52C260.16 35.52 257.59 32.9 257.59 29.52Z" fill="#6366f1"/></g>
    <g class="t2"><path d="M123.2 79H129.63V52.96L138.71 79H143.97L153.04 52.96V79H159.48V44.27H150.64L141.38 70.59L132.03 44.27H123.2ZM163.31 66.08C163.31 73.69 169.47 79.61 177.41 79.61C182.67 79.61 188.08 76.65 189.82 71.29H183C181.41 73.17 179.85 73.88 177.27 73.88C173.56 73.88 170.83 71.9 170.08 68.75H190.24C190.43 67.86 190.48 67.3 190.48 66.36C190.48 58.27 184.79 52.35 177.03 52.35C169.37 52.35 163.31 58.41 163.31 66.08ZM169.89 63.26C170.88 59.92 173.42 58.09 177.13 58.09C180.98 58.09 183.52 59.92 184.32 63.26ZM194.12 79H200.37V66.73C200.37 63.26 200.6 61.75 201.4 60.48C202.39 58.93 204.04 58.09 206.01 58.09C209.11 58.09 210.99 59.31 210.99 66.26V79H217.24V65.04C217.24 60.39 216.77 58.13 215.36 56.11C213.67 53.67 210.85 52.35 207.23 52.35C204.27 52.35 202.2 53.24 199.9 55.45V52.96H194.12ZM220.79 65.93C220.79 73.64 226.48 79.61 233.86 79.61C237.38 79.61 239.97 78.44 242.46 75.62V79H248.19V44.27H241.94V55.27C240.11 53.24 237.1 52.02 233.81 52.02C226.52 52.02 220.79 58.13 220.79 65.93ZM227.09 65.65C227.09 61.23 230.43 57.76 234.7 57.76C239.07 57.76 242.41 61.28 242.41 65.84C242.41 70.35 239.07 73.88 234.84 73.88C230.47 73.88 227.09 70.26 227.09 65.65ZM251.41 65.98C251.41 73.5 257.61 79.61 265.23 79.61C272.8 79.61 279.09 73.5 279.09 66.17C279.09 58.41 273.03 52.35 265.18 52.35C257.61 52.35 251.41 58.51 251.41 65.98ZM257.71 65.89C257.71 61.61 261.14 58.09 265.23 58.09C269.41 58.09 272.8 61.66 272.8 65.98C272.8 70.35 269.41 73.88 265.28 73.88C261.05 73.88 257.71 70.35 257.71 65.89ZM282.22 79H288.47V66.73C288.47 63.26 288.7 61.75 289.5 60.48C290.49 58.93 292.13 58.09 294.11 58.09C297.21 58.09 299.09 59.31 299.09 66.26V79H305.34V65.04C305.34 60.39 304.87 58.13 303.46 56.11C301.77 53.67 298.95 52.35 295.33 52.35C292.37 52.35 290.3 53.24 288 55.45V52.96H282.22ZM308.89 65.98C308.89 73.36 314.81 79.33 322.29 79.61L319.65 83.09L322 84.88C322.38 84.41 322.94 84.08 323.6 84.08C324.68 84.08 325.58 84.97 325.58 86.05C325.58 87.18 324.68 88.02 323.6 88.02C322.75 88.02 322.05 87.51 321.77 86.75H318.67C319 89.2 321.11 91.03 323.6 91.03C326.37 91.03 328.58 88.82 328.58 86.05C328.58 83.56 326.75 81.49 324.35 81.16L325.72 79.33C330.37 78.44 333.94 75.29 335.73 70.45H328.68C327.13 72.84 325.34 73.88 322.75 73.88C318.43 73.88 315.19 70.49 315.19 65.93C315.19 61.38 318.29 58.09 322.61 58.09C325.43 58.09 327.41 59.26 328.68 61.66H335.73C333.71 55.69 328.54 52.35 322.61 52.35C314.91 52.35 308.89 58.32 308.89 65.98ZM338.57 66.08C338.57 73.92 344.07 79.61 351.68 79.61C355.35 79.61 357.84 78.44 360.33 75.62V79H366.07V52.96H360.33V56.44C358.17 53.57 355.58 52.35 351.82 52.35C344.12 52.35 338.57 58.13 338.57 66.08ZM344.87 66.22C344.87 61.47 348.02 58.09 352.48 58.09C356.95 58.09 360.14 61.42 360.14 66.17C360.14 70.49 357.32 73.88 352.58 73.88C348.02 73.88 344.87 70.78 344.87 66.22Z" fill="#0f172a"/></g>
  </g></g>

  <!-- Logo -->
  <g class="slide">
    <g transform="translate(48 96)"><g class="hit"><g transform="translate(-48 -96)">
      <svg x="0" y="0" width="96" height="96" viewBox="0 0 512 512">
        <rect class="tile" width="512" height="512" rx="116" fill="url(#g)"/>
        <g transform="translate(2,-4)">
          <path class="m" pathLength="1" d="M132 340V190L254 312L376 128V340"/>
          <path class="base" pathLength="1" d="M123 403H389"/>
        </g>
        <g clip-path="url(#tileclip)"><g transform="skewX(-20)"><rect class="shine" x="-260" y="-20" width="170" height="560" fill="url(#sh)"/></g></g>
      </svg>
    </g></g></g>
  </g>

  <!-- Chapéu de formando -->
  <g transform="translate(50 -20) rotate(-8)">
    <g class="cap">
      <path d="M-21 3V17C-21 26 -11 30 0 30C11 30 21 26 21 17V3Z" fill="#1e1b4b"/>
      <path d="M-21 17C-21 26 -11 30 0 30C11 30 21 26 21 17" fill="none" stroke="#fff" stroke-opacity=".18" stroke-width="1"/>
      <path d="M-40 0L0 16L40 0V4.5L0 20.5L-40 4.5Z" fill="#020617"/>
      <path d="M0 -16L40 0L0 16L-40 0Z" fill="#0f172a" stroke="#fff" stroke-opacity=".45" stroke-width="1" stroke-linejoin="round"/>
      <path d="M0 -11.5L29 0" stroke="#fff" stroke-opacity=".12" stroke-width="1.2" stroke-linecap="round"/>
      <path d="M0 0L34 2.4" stroke="#f59e0b" stroke-width="1.7" stroke-linecap="round"/>
      <circle r="2.8" fill="#f59e0b"/>
      <g transform="translate(34 2.4)"><g class="tassel">
        <path d="M0 0V19" stroke="#f59e0b" stroke-width="1.7" stroke-linecap="round"/>
        <path d="M-3.2 18H3.2L4.6 30.5H-4.6Z" fill="#f59e0b"/>
        <path d="M-1.6 21V30M1.6 21V30" stroke="#b45309" stroke-width=".8" stroke-linecap="round"/>
      </g></g>
    </g>
  </g>

  <!-- Brilhos após o impacto -->
  <g transform="translate(96 -30)"><path class="spark s1" d="M0 -7Q0 0 7 0Q0 0 0 7Q0 0 -7 0Q0 0 0 -7Z" fill="#f59e0b"/></g>
  <g transform="translate(3 -8)"><path class="spark s2" d="M0 -5Q0 0 5 0Q0 0 0 5Q0 0 -5 0Q0 0 0 -5Z" fill="#f59e0b"/></g>

</g>
</svg>
